# xmcd
#
# Track frame offsets: 
#        150
#        20031
#        38325
#        57026
#        81019
#        97547
#        113142
#        128447
#        144291
#
# Disc length: 2174 seconds
#
# Revision: 0
# Processed by: cddbd v1.5.2PL0 Copyright (c) Steve Scherf et al.
# Submitted via: ExactAudioCopy v1.0b3
#
DISCID=5a087c09
DTITLE=The Stylistics - From The Mountain
DYEAR=1974
DGENRE=Soul
TTITLE0=The Miracle
TTITLE1=She Did A Number On Me
TTITLE2=Star On A TV Show
TTITLE3=Heavy Fallin' Out
TTITLE4=What's Happenin', Baby?
TTITLE5=Go Now
TTITLE6=Don't Put It Down Till You've Been There
TTITLE7=Hey Girl, Come And Get It
TTITLE8=From The Mountain
EXTD=
EXTT0=
EXTT1=
EXTT2=
EXTT3=
EXTT4=
EXTT5=
EXTT6=
EXTT7=
EXTT8=
PLAYORDER=
